<svg class="logo" width="81" height="102" viewBox="0 0 81 102" fill="none" xmlns="http://www.w3.org/2000/svg"><path fill-rule="evenodd" clip-rule="evenodd" d="M53.07 64.14C67.6098 59.1404 76.659 44.6384 74.7597 29.3807C72.8603 14.1231 60.5318 2.28229 45.21 0.999995C44.35 0.919995 43.48 0.869995 42.61 0.869995H0.359985V60.29V65.93V101.93H80.6L53.07 64.14ZM69.5 33.38C69.5 45.579 61.2909 56.2509 49.5 59.38C48.7867 59.5667 48.0667 59.7267 47.34 59.86V6.91C60.1555 9.19997 69.49 20.3415 69.5 33.36V33.38ZM6.00999 60.26H41.71V6.47H6.00999V60.26ZM6.00999 96.23V65.9H41.71V96.27L6.00999 96.23ZM47.36 65.9V96.23L69.5 96.28L47.36 65.9Z" fill="black"></path><path d="M69.5 96.27L47.35 65.89V96.27H69.5Z" fill="#FFDE17"></path><rect x="6.01001" y="6.46997" width="35.7" height="53.78" fill="#FFDE17"></rect><rect x="6.01001" y="65.89" width="35.7" height="30.38" fill="#FFDE17"></rect><path d="M47.36 6.90997V59.8C60.1788 57.5201 69.5166 46.3749 69.5166 33.355C69.5166 20.335 60.1788 9.18985 47.36 6.90997Z" fill="#FFDE17"></path></svg>